<svg width="51" height="51" viewBox="0 0 51 51" fill="none" xmlns="http://www.w3.org/2000/svg">
<path d="M31.48 25.3786C31.48 31.0844 26.8546 35.7099 21.1488 35.7099C15.443 35.7099 10.8175 31.0844 10.8175 25.3786C10.8175 19.6728 15.443 15.0474 21.1488 15.0474C26.8546 15.0474 31.48 19.6728 31.48 25.3786ZM31.48 25.3786H21.1488M31.48 25.3786C34.9035 25.3786 37.6788 22.6034 37.6788 19.1799V8.84863M11.2308 41.9086H39.3318C41.6462 41.9086 42.8034 41.9086 43.6874 41.4582C44.465 41.062 45.0972 40.4298 45.4934 39.6522C45.9438 38.7683 45.9438 37.6111 45.9438 35.2966V15.4606C45.9438 13.1462 45.9438 11.989 45.4934 11.105C45.0972 10.3274 44.465 9.69525 43.6874 9.29905C42.8034 8.84863 41.6462 8.84863 39.3318 8.84863H11.2308C8.91636 8.84863 7.75915 8.84863 6.87516 9.29905C6.09758 9.69525 5.46539 10.3274 5.06919 11.105C4.61877 11.989 4.61877 13.1462 4.61877 15.4606V35.2966C4.61877 37.6111 4.61877 38.7683 5.06919 39.6522C5.46539 40.4298 6.09758 41.062 6.87516 41.4582C7.75915 41.9086 8.91636 41.9086 11.2308 41.9086Z" stroke="#5F6D7E" stroke-width="3.87" stroke-linecap="round"/>
</svg>
