<svg width="50" height="50" viewBox="0 0 50 50" fill="none" xmlns="http://www.w3.org/2000/svg">
<path d="M12.4319 35.4206C11.3632 35.4206 10.4969 36.2869 10.4969 37.3556C10.4969 38.4242 11.3632 39.2906 12.4319 39.2906V35.4206ZM31.0282 39.2906C32.0968 39.2906 32.9632 38.4242 32.9632 37.3556C32.9632 36.2869 32.0968 35.4206 31.0282 35.4206V39.2906ZM27.0269 20.8256C27.0269 22.0392 26.0431 23.0231 24.8294 23.0231V26.8931C28.1804 26.8931 30.8969 24.1766 30.8969 20.8256H27.0269ZM24.8294 23.0231C23.6158 23.0231 22.6319 22.0392 22.6319 20.8256H18.7619C18.7619 24.1766 21.4784 26.8931 24.8294 26.8931V23.0231ZM22.6319 20.8256C22.6319 19.6119 23.6158 18.6281 24.8294 18.6281V14.7581C21.4784 14.7581 18.7619 17.4746 18.7619 20.8256H22.6319ZM24.8294 18.6281C26.0431 18.6281 27.0269 19.6119 27.0269 20.8256H30.8969C30.8969 17.4746 28.1804 14.7581 24.8294 14.7581V18.6281ZM12.3007 20.8256C12.3007 13.9061 17.91 8.29682 24.8294 8.29682V4.42682C15.7726 4.42682 8.43065 11.7688 8.43065 20.8256H12.3007ZM24.8294 8.29682C31.7488 8.29682 37.3582 13.9061 37.3582 20.8256H41.2282C41.2282 11.7688 33.8862 4.42682 24.8294 4.42682V8.29682ZM37.3582 20.8256C37.3582 24.24 35.9949 27.3321 33.7786 29.5938L36.5427 32.3024C39.4391 29.3467 41.2282 25.2931 41.2282 20.8256H37.3582ZM15.8802 29.5938C13.6639 27.3321 12.3007 24.24 12.3007 20.8256H8.43065C8.43065 25.2931 10.2197 29.3467 13.1161 32.3024L15.8802 29.5938ZM12.4319 33.0918H37.2269V29.2218H12.4319V33.0918ZM37.2269 41.6193H12.4319V45.4893H37.2269V41.6193ZM12.4319 41.6193C11.4427 41.6193 10.7977 41.6183 10.3025 41.5845C9.82472 41.5519 9.62935 41.4954 9.52471 41.452L8.04372 45.0275C8.69851 45.2987 9.36424 45.3995 10.0391 45.4455C10.6965 45.4904 11.4956 45.4893 12.4319 45.4893V41.6193ZM4.29815 37.3556C4.29815 38.2918 4.29711 39.091 4.34196 39.7484C4.38801 40.4232 4.48879 41.089 4.76002 41.7438L8.33543 40.2628C8.29208 40.1581 8.23559 39.9628 8.20299 39.485C8.1692 38.9898 8.16815 38.3448 8.16815 37.3556H4.29815ZM9.52471 41.452C8.98626 41.229 8.55846 40.8012 8.33543 40.2628L4.76002 41.7438C5.37583 43.2305 6.55702 44.4116 8.04372 45.0275L9.52471 41.452ZM41.4907 37.3556C41.4907 38.3448 41.4896 38.9898 41.4558 39.485C41.4232 39.9628 41.3667 40.1581 41.3234 40.2628L44.8988 41.7438C45.17 41.089 45.2708 40.4232 45.3168 39.7484C45.3617 39.091 45.3607 38.2918 45.3607 37.3556H41.4907ZM37.2269 45.4893C38.1632 45.4893 38.9623 45.4904 39.6197 45.4455C40.2946 45.3995 40.9603 45.2987 41.6151 45.0275L40.1341 41.452C40.0295 41.4954 39.8341 41.5519 39.3563 41.5845C38.8611 41.6183 38.2161 41.6193 37.2269 41.6193V45.4893ZM41.3234 40.2628C41.1003 40.8012 40.6726 41.229 40.1341 41.452L41.6151 45.0275C43.1018 44.4116 44.283 43.2305 44.8988 41.7438L41.3234 40.2628ZM37.2269 33.0918C38.2161 33.0918 38.8611 33.0929 39.3563 33.1266C39.8341 33.1592 40.0295 33.2157 40.1341 33.2591L41.6151 29.6837C40.9603 29.4125 40.2946 29.3117 39.6197 29.2656C38.9623 29.2208 38.1632 29.2218 37.2269 29.2218V33.0918ZM45.3607 37.3556C45.3607 36.4193 45.3617 35.6202 45.3168 34.9627C45.2708 34.2879 45.17 33.6222 44.8988 32.9674L41.3234 34.4484C41.3667 34.553 41.4232 34.7484 41.4558 35.2262C41.4896 35.7213 41.4907 36.3663 41.4907 37.3556H45.3607ZM40.1341 33.2591C40.6726 33.4821 41.1003 33.9099 41.3234 34.4484L44.8988 32.9674C44.283 31.4807 43.1018 30.2995 41.6151 29.6837L40.1341 33.2591ZM12.4319 29.2218C11.4956 29.2218 10.6965 29.2208 10.0391 29.2656C9.36424 29.3117 8.69851 29.4125 8.04372 29.6837L9.52471 33.2591C9.62935 33.2157 9.82472 33.1592 10.3025 33.1266C10.7977 33.0929 11.4427 33.0918 12.4319 33.0918V29.2218ZM8.16815 37.3556C8.16815 36.3663 8.1692 35.7213 8.20299 35.2262C8.23559 34.7484 8.29208 34.553 8.33543 34.4484L4.76002 32.9674C4.48879 33.6222 4.38801 34.2879 4.34196 34.9627C4.29711 35.6202 4.29815 36.4193 4.29815 37.3556H8.16815ZM8.04372 29.6837C6.55701 30.2995 5.37583 31.4807 4.76002 32.9674L8.33543 34.4484C8.55846 33.9099 8.98626 33.4821 9.52471 33.2591L8.04372 29.6837ZM12.4319 39.2906H31.0282V35.4206H12.4319V39.2906Z" fill="white"/>
</svg>
