<svg width="50" height="50" viewBox="0 0 50 50" fill="none" xmlns="http://www.w3.org/2000/svg">
<path d="M11.2644 34.6389L10.5102 36.4209L10.5102 36.4209L11.2644 34.6389ZM11.2644 19.4097L12.0187 21.1916L12.0187 21.1916L11.2644 19.4097ZM12.8095 19.1367L12.4423 21.0365L12.4423 21.0365L12.8095 19.1367ZM14.1327 20.0135L15.7391 18.9347L15.7391 18.9347L14.1327 20.0135ZM12.8095 34.9119L12.4423 33.0121L12.4423 33.0121L12.8095 34.9119ZM14.1327 34.0351L12.5263 32.9564L12.5263 32.9564L14.1327 34.0351ZM38.3653 34.6389L39.1196 36.4209L39.1196 36.4209L38.3653 34.6389ZM38.3653 19.4097L37.611 21.1916L37.611 21.1916L38.3653 19.4097ZM36.8202 19.1367L37.1875 21.0365L37.1875 21.0365L36.8202 19.1367ZM35.497 20.0135L33.8906 18.9347L33.8906 18.9347L35.497 20.0135ZM36.8202 34.9119L37.1875 33.0121L37.1875 33.0121L36.8202 34.9119ZM35.497 34.0351L37.1034 32.9564L37.1034 32.9564L35.497 34.0351ZM41.2136 35.2893C41.2136 34.2206 40.3473 33.3543 39.2786 33.3543C38.21 33.3543 37.3436 34.2206 37.3436 35.2893H41.2136ZM24.8149 39.5531C23.7462 39.5531 22.8799 40.4194 22.8799 41.4881C22.8799 42.5567 23.7462 43.4231 24.8149 43.4231V39.5531ZM12.0187 32.857C9.74377 31.894 8.15363 29.6426 8.15363 27.0243H4.28363C4.28363 31.2513 6.85445 34.8735 10.5102 36.4209L12.0187 32.857ZM8.15363 27.0243C8.15363 24.406 9.74377 22.1546 12.0187 21.1916L10.5102 17.6278C6.85445 19.1752 4.28363 22.7973 4.28363 27.0243H8.15363ZM16.4186 31.9833V22.0653H12.5486V31.9833H16.4186ZM12.0187 21.1916C12.183 21.1221 12.2793 21.0817 12.3605 21.0512C12.4346 21.0233 12.4557 21.0195 12.4488 21.021C12.4345 21.0241 12.41 21.0273 12.3874 21.0272C12.3696 21.0271 12.3823 21.0249 12.4423 21.0365L13.1768 17.2369C12.6512 17.1353 12.1513 17.1251 11.6253 17.2396C11.1812 17.3363 10.7708 17.5175 10.5102 17.6278L12.0187 21.1916ZM16.4186 22.0653C16.4186 21.2025 16.4804 20.0386 15.7391 18.9347L12.5263 21.0922C12.5295 21.0969 12.5216 21.085 12.5148 21.066C12.5092 21.0505 12.515 21.0593 12.5227 21.1156C12.5312 21.178 12.5393 21.276 12.5439 21.4413C12.5485 21.6086 12.5486 21.8029 12.5486 22.0653H16.4186ZM12.4423 21.0365C12.3899 21.0264 12.3579 21.0158 12.3488 21.0127C12.3385 21.0091 12.3395 21.0089 12.3516 21.0145C12.3632 21.0198 12.3805 21.0285 12.4024 21.0408C12.4242 21.0531 12.4477 21.0674 12.4718 21.0833C12.4958 21.0993 12.5182 21.1153 12.5379 21.1306C12.5579 21.146 12.5726 21.1586 12.582 21.1671C12.5919 21.1761 12.592 21.1771 12.5848 21.169C12.5784 21.1619 12.5561 21.1366 12.5263 21.0922L15.7391 18.9347C15.4173 18.4555 14.9604 18.0899 14.6094 17.8573C14.2584 17.6247 13.7436 17.3465 13.1768 17.2369L12.4423 21.0365ZM10.5102 36.4209C10.7708 36.5312 11.1812 36.7123 11.6253 36.809C12.1513 36.9236 12.6512 36.9133 13.1768 36.8118L12.4423 33.0121C12.3823 33.0237 12.3696 33.0215 12.3874 33.0215C12.41 33.0214 12.4345 33.0245 12.4488 33.0276C12.4557 33.0292 12.4346 33.0253 12.3605 32.9975C12.2793 32.967 12.183 32.9265 12.0187 32.857L10.5102 36.4209ZM12.5486 31.9833C12.5486 32.2457 12.5485 32.44 12.5439 32.6074C12.5393 32.7726 12.5312 32.8707 12.5227 32.933C12.515 32.9893 12.5092 32.9981 12.5148 32.9826C12.5216 32.9636 12.5295 32.9517 12.5263 32.9564L15.7391 35.1139C16.4804 34.01 16.4186 32.8461 16.4186 31.9833H12.5486ZM13.1768 36.8118C13.7436 36.7022 14.2584 36.4239 14.6094 36.1914C14.9604 35.9588 15.4173 35.5932 15.7391 35.1139L12.5263 32.9564C12.5561 32.9121 12.5784 32.8868 12.5848 32.8796C12.592 32.8715 12.5919 32.8726 12.582 32.8815C12.5726 32.8901 12.5579 32.9027 12.5379 32.918C12.5182 32.9333 12.4958 32.9494 12.4718 32.9653C12.4477 32.9812 12.4242 32.9956 12.4024 33.0078C12.3805 33.0202 12.3632 33.0288 12.3516 33.0342C12.3395 33.0397 12.3385 33.0395 12.3488 33.036C12.3579 33.0328 12.3899 33.0222 12.4423 33.0121L13.1768 36.8118ZM39.1196 36.4209C42.7753 34.8735 45.3461 31.2513 45.3461 27.0243H41.4761C41.4761 29.6426 39.886 31.894 37.611 32.857L39.1196 36.4209ZM45.3461 27.0243C45.3461 22.7973 42.7753 19.1752 39.1196 17.6278L37.611 21.1916C39.886 22.1546 41.4761 24.406 41.4761 27.0243H45.3461ZM37.0811 31.9833V22.0653H33.2111V31.9833H37.0811ZM39.1196 17.6278C38.859 17.5175 38.4486 17.3363 38.0045 17.2396C37.4785 17.1251 36.9785 17.1353 36.453 17.2369L37.1875 21.0365C37.2475 21.0249 37.2602 21.0271 37.2423 21.0272C37.2198 21.0273 37.1952 21.0241 37.181 21.021C37.1741 21.0195 37.1951 21.0233 37.2692 21.0512C37.3504 21.0817 37.4468 21.1221 37.611 21.1916L39.1196 17.6278ZM37.0811 22.0653C37.0811 21.8029 37.0813 21.6086 37.0859 21.4413C37.0904 21.276 37.0985 21.178 37.1071 21.1156C37.1148 21.0593 37.1205 21.0505 37.115 21.066C37.1081 21.085 37.1003 21.0969 37.1034 21.0922L33.8906 18.9347C33.1493 20.0386 33.2111 21.2025 33.2111 22.0653H37.0811ZM36.453 17.2369C35.8862 17.3465 35.3714 17.6247 35.0204 17.8573C34.6694 18.0899 34.2125 18.4555 33.8906 18.9347L37.1034 21.0922C37.0737 21.1366 37.0514 21.1619 37.045 21.169C37.0377 21.1771 37.0379 21.1761 37.0477 21.1671C37.0572 21.1586 37.0719 21.146 37.0918 21.1306C37.1116 21.1153 37.134 21.0993 37.158 21.0833C37.182 21.0674 37.2056 21.0531 37.2273 21.0408C37.2492 21.0285 37.2666 21.0198 37.2781 21.0145C37.2902 21.0089 37.2912 21.0091 37.2809 21.0127C37.2719 21.0158 37.2399 21.0264 37.1875 21.0365L36.453 17.2369ZM37.611 32.857C37.4468 32.9265 37.3504 32.967 37.2692 32.9975C37.1951 33.0253 37.1741 33.0292 37.181 33.0276C37.1953 33.0245 37.2198 33.0214 37.2423 33.0215C37.2602 33.0215 37.2475 33.0237 37.1875 33.0121L36.453 36.8118C36.9785 36.9133 37.4784 36.9236 38.0045 36.809C38.4486 36.7123 38.859 36.5312 39.1196 36.4209L37.611 32.857ZM33.2111 31.9833C33.2111 32.8461 33.1493 34.01 33.8906 35.1139L37.1034 32.9564C37.1003 32.9517 37.1081 32.9636 37.115 32.9826C37.1205 32.9981 37.1148 32.9894 37.1071 32.933C37.0985 32.8707 37.0904 32.7726 37.0859 32.6074C37.0813 32.44 37.0811 32.2457 37.0811 31.9833H33.2111ZM37.1875 33.0121C37.2399 33.0222 37.2719 33.0328 37.2809 33.036C37.2912 33.0395 37.2902 33.0397 37.2781 33.0342C37.2666 33.0288 37.2492 33.0202 37.2273 33.0078C37.2056 32.9956 37.182 32.9812 37.158 32.9653C37.134 32.9494 37.1116 32.9333 37.0918 32.918C37.0719 32.9027 37.0572 32.8901 37.0477 32.8815C37.0379 32.8726 37.0377 32.8715 37.045 32.8796C37.0514 32.8868 37.0737 32.9121 37.1034 32.9564L33.8906 35.1139C34.2125 35.5932 34.6694 35.9588 35.0204 36.1914C35.3714 36.4239 35.8862 36.7022 36.453 36.8118L37.1875 33.0121ZM12.2861 20.8256C12.2861 13.9061 17.8954 8.29682 24.8149 8.29682V4.42682C15.7581 4.42682 8.41613 11.7688 8.41613 20.8256H12.2861ZM24.8149 8.29682C31.7343 8.29682 37.3436 13.9061 37.3436 20.8256H41.2136C41.2136 11.7688 33.8717 4.42682 24.8149 4.42682V8.29682ZM37.3436 35.2893V37.3556H41.2136V35.2893H37.3436ZM35.1461 39.5531H24.8149V43.4231H35.1461V39.5531ZM37.3436 37.3556C37.3436 38.5692 36.3598 39.5531 35.1461 39.5531V43.4231C38.4971 43.4231 41.2136 40.7066 41.2136 37.3556H37.3436Z" fill="white" fill-opacity="0.22"/>
</svg>
