<svg width="83" height="83" viewBox="0 0 83 83" fill="none" xmlns="http://www.w3.org/2000/svg">
<g filter="url(#filter0_d_835_56741)">
<rect x="4.39697" y="0.0366211" width="74.382" height="74.382" rx="10.3308" fill="white" fill-opacity="0.08" shape-rendering="crispEdges"/>
<path fill-rule="evenodd" clip-rule="evenodd" d="M29.1927 22.6866C29.1927 20.3723 29.1927 19.2151 29.6431 18.3312C30.0392 17.5536 30.6714 16.9215 31.449 16.5253C32.3329 16.0749 33.4901 16.0749 35.8044 16.0749H47.3749C49.6893 16.0749 50.8464 16.0749 51.7304 16.5253C52.5079 16.9215 53.1401 17.5536 53.5363 18.3312C53.9867 19.2151 53.9867 20.3723 53.9867 22.6866V50.7865C53.9867 53.1008 53.9867 54.258 53.5363 55.1419C53.1401 55.9195 52.5079 56.5517 51.7304 56.9478C50.8464 57.3982 49.6893 57.3982 47.3749 57.3982H35.8044C33.4901 57.3982 32.3329 57.3982 31.449 56.9478C30.6714 56.5517 30.0392 55.9195 29.6431 55.1419C29.1927 54.258 29.1927 53.1008 29.1927 50.7865V22.6866ZM37.4573 22.2734C37.4573 21.1323 38.3824 20.2072 39.5235 20.2072H43.6558C44.7969 20.2072 45.722 21.1323 45.722 22.2734C45.722 23.4145 44.7969 24.3396 43.6558 24.3396H39.5235C38.3824 24.3396 37.4573 23.4145 37.4573 22.2734Z" fill="#162E53"/>
<path fill-rule="evenodd" clip-rule="evenodd" d="M23.9181 28.69C24.9388 29.2003 25.3525 30.4414 24.8422 31.462L23.238 34.6703L24.6111 37.4167C25.0474 38.2892 25.0474 39.3162 24.6111 40.1887L22.776 43.859C22.2657 44.8797 21.0246 45.2934 20.0039 44.783C18.9833 44.2727 18.5696 43.0316 19.0799 42.011L20.6841 38.8027L19.3109 36.0564C18.8747 35.1838 18.8747 34.1568 19.3109 33.2843L21.1461 29.614C21.6564 28.5933 22.8975 28.1797 23.9181 28.69ZM63.1753 28.69C64.196 29.2003 64.6096 30.4414 64.0993 31.462L62.4952 34.6703L63.8683 37.4166C64.3046 38.2892 64.3046 39.3162 63.8683 40.1887L62.0332 43.859C61.5228 44.8797 60.2817 45.2934 59.2611 44.783C58.2405 44.2727 57.8268 43.0316 58.3371 42.011L59.9412 38.8027L58.5681 36.0564C58.1318 35.1838 58.1318 34.1568 58.5681 33.2843L60.4033 29.614C60.9136 28.5933 62.1547 28.1797 63.1753 28.69Z" fill="#556586"/>
<rect x="5.08211" y="0.721756" width="73.0117" height="73.0118" rx="9.6457" stroke="#253347" stroke-width="1.37027" shape-rendering="crispEdges"/>
</g>
<defs>
<filter id="filter0_d_835_56741" x="0.396973" y="0.0366211" width="82.3821" height="82.382" filterUnits="userSpaceOnUse" color-interpolation-filters="sRGB">
<feFlood flood-opacity="0" result="BackgroundImageFix"/>
<feColorMatrix in="SourceAlpha" type="matrix" values="0 0 0 0 0 0 0 0 0 0 0 0 0 0 0 0 0 0 127 0" result="hardAlpha"/>
<feOffset dy="4"/>
<feGaussianBlur stdDeviation="2"/>
<feComposite in2="hardAlpha" operator="out"/>
<feColorMatrix type="matrix" values="0 0 0 0 0 0 0 0 0 0 0 0 0 0 0 0 0 0 0.25 0"/>
<feBlend mode="normal" in2="BackgroundImageFix" result="effect1_dropShadow_835_56741"/>
<feBlend mode="normal" in="SourceGraphic" in2="effect1_dropShadow_835_56741" result="shape"/>
</filter>
</defs>
</svg>
