<svg width="38" height="46" viewBox="0 0 38 46" fill="none" xmlns="http://www.w3.org/2000/svg">
<path d="M14.7645 8.49434H23.0295M18.1217 24.2494H19.6713M18.1217 25.7991H19.6713M8.979 43.6206H28.815C31.1294 43.6206 32.2866 43.6206 33.1706 43.1702C33.9482 42.774 34.5804 42.1418 34.9766 41.3642C35.427 40.4802 35.427 39.323 35.427 37.0086V8.90759C35.427 6.59318 35.427 5.43597 34.9766 4.55198C34.5804 3.7744 33.9482 3.14221 33.1706 2.74601C32.2866 2.29559 31.1294 2.29559 28.815 2.29559H8.979C6.66459 2.29559 5.50738 2.29559 4.62339 2.74601C3.84581 3.14221 3.21362 3.7744 2.81742 4.55198C2.367 5.43597 2.367 6.59318 2.367 8.90759V37.0086C2.367 39.323 2.367 40.4802 2.81742 41.3642C3.21362 42.1418 3.84581 42.774 4.62339 43.1702C5.50738 43.6206 6.66459 43.6206 8.979 43.6206ZM29.2283 25.0243C29.2283 30.7301 24.6028 35.3556 18.897 35.3556C13.1912 35.3556 8.56575 30.7301 8.56575 25.0243C8.56575 19.3186 13.1912 14.6931 18.897 14.6931C24.6028 14.6931 29.2283 19.3186 29.2283 25.0243ZM20.9633 25.0243C20.9633 26.1655 20.0382 27.0906 18.897 27.0906C17.7558 27.0906 16.8308 26.1655 16.8308 25.0243C16.8308 23.8832 17.7558 22.9581 18.897 22.9581C20.0382 22.9581 20.9633 23.8832 20.9633 25.0243Z" stroke="white" stroke-opacity="0.5" stroke-width="3.87" stroke-linecap="round"/>
</svg>
