<svg width="40" height="40" viewBox="0 0 40 40" fill="#3F497F" xmlns="http://www.w3.org/2000/svg">
<path d="M18.2099 20.3335L20.0159 19.6389L20.0159 19.6389L18.2099 20.3335ZM23.9787 35.3324L22.1727 36.027L22.1727 36.027L23.9787 35.3324ZM35.345 23.9661L36.0396 22.1601L35.345 23.9661ZM20.3461 18.1973L19.6515 20.0033L19.6515 20.0033L20.3461 18.1973ZM31.0671 35.2025L32.6151 34.0415L32.6151 34.0415L31.0671 35.2025ZM32.1331 36.6239L30.5851 37.7849L30.5851 37.7849L32.1331 36.6239ZM36.6364 32.1205L35.4754 33.6685L35.4754 33.6685L36.6364 32.1205ZM35.2151 31.0545L36.3761 29.5065L36.3761 29.5065L35.2151 31.0545ZM17.6942 18.3316L15.8601 17.7149L15.8601 17.7149L17.6942 18.3316ZM18.3442 17.6817L17.7275 15.8476L17.7275 15.8476L18.3442 17.6817ZM8.74101 16.8622C8.74101 17.9309 9.60734 18.7972 10.676 18.7972C11.7447 18.7972 12.611 17.9309 12.611 16.8622H8.74101ZM16.8748 12.5984C17.9434 12.5984 18.8098 11.7321 18.8098 10.6634C18.8098 9.59477 17.9434 8.72844 16.8748 8.72844V12.5984ZM28.8849 13.2816C29.1898 14.3059 30.2672 14.8891 31.2915 14.5843C32.3158 14.2795 32.899 13.202 32.5942 12.1777L28.8849 13.2816ZM12.1903 32.5816C13.2146 32.8864 14.292 32.3032 14.5969 31.2789C14.9017 30.2547 14.3185 29.1772 13.2942 28.8724L12.1903 32.5816ZM16.4039 21.0282L22.1727 36.027L25.7847 34.6378L20.0159 19.6389L16.4039 21.0282ZM36.0396 22.1601L21.0407 16.3913L19.6515 20.0033L34.6504 25.7721L36.0396 22.1601ZM29.5191 36.3635L30.5851 37.7849L33.6811 35.4629L32.6151 34.0415L29.5191 36.3635ZM37.7974 30.5725L36.3761 29.5065L34.0541 32.6025L35.4754 33.6685L37.7974 30.5725ZM36.3761 29.5065C36.363 29.4967 36.3574 29.49 36.3553 29.4873C36.353 29.4844 36.3516 29.4819 36.3503 29.4789C36.3474 29.472 36.3436 29.4576 36.3454 29.4376C36.3472 29.4175 36.3535 29.404 36.3576 29.3978C36.3594 29.3951 36.3613 29.3928 36.364 29.3904C36.3665 29.3881 36.3733 29.3825 36.3879 29.3752L34.6572 25.9138C32.0325 27.2261 31.7065 30.8418 34.0541 32.6025L36.3761 29.5065ZM38.3492 38.3366C40.566 36.1198 40.3055 32.4536 37.7974 30.5725L35.4754 33.6685C36.0994 34.1365 36.1642 35.0486 35.6127 35.6001L38.3492 38.3366ZM30.5851 37.7849C32.4661 40.2929 36.1324 40.5535 38.3492 38.3366L35.6127 35.6001C35.0612 36.1516 34.1491 36.0868 33.6811 35.4629L30.5851 37.7849ZM29.3878 36.3753C29.3951 36.3608 29.4007 36.354 29.4029 36.3515C29.4054 36.3487 29.4077 36.3468 29.4104 36.345C29.4166 36.3409 29.4301 36.3346 29.4501 36.3328C29.4702 36.331 29.4846 36.3348 29.4914 36.3377C29.4944 36.339 29.497 36.3405 29.4999 36.3427C29.5025 36.3448 29.5093 36.3505 29.5191 36.3635L32.6151 34.0415C30.8544 31.6939 27.2387 32.0199 25.9264 34.6446L29.3878 36.3753ZM34.6504 25.7721C34.6741 25.7813 34.6833 25.7886 34.6845 25.7895C34.6861 25.7908 34.6865 25.7913 34.6872 25.7923C34.6896 25.7959 34.6986 25.8121 34.6999 25.8407C34.7013 25.8693 34.694 25.8864 34.6919 25.8901C34.6913 25.8912 34.691 25.8918 34.6895 25.8932C34.6884 25.8943 34.6799 25.9024 34.6572 25.9138L36.3879 29.3752C39.4567 27.8408 39.2419 23.3918 36.0396 22.1601L34.6504 25.7721ZM22.1727 36.027C23.4043 39.2294 27.8534 39.4441 29.3878 36.3753L25.9264 34.6446C25.915 34.6673 25.9068 34.6758 25.9058 34.6769C25.9043 34.6784 25.9038 34.6788 25.9027 34.6794C25.8989 34.6814 25.8819 34.6887 25.8533 34.6874C25.8247 34.686 25.8085 34.6771 25.8049 34.6746C25.8039 34.6739 25.8034 34.6735 25.8021 34.6719C25.8011 34.6707 25.7938 34.6615 25.7847 34.6378L22.1727 36.027ZM20.0159 19.6389C19.9085 19.3596 19.8223 19.1353 19.7515 18.9417C19.6801 18.7466 19.6363 18.6149 19.6099 18.5223C19.5822 18.4251 19.5891 18.4232 19.5938 18.4798C19.5991 18.5446 19.6046 18.7215 19.5283 18.9483L15.8601 17.7149C15.6008 18.4861 15.7813 19.2081 15.8881 19.5829C16.0085 20.0055 16.2063 20.5144 16.4039 21.0282L20.0159 19.6389ZM21.0407 16.3913C20.527 16.1937 20.0181 15.996 19.5954 15.8755C19.2207 15.7687 18.4986 15.5883 17.7275 15.8476L18.9609 19.5158C18.7341 19.592 18.5572 19.5865 18.4924 19.5812C18.4358 19.5765 18.4376 19.5696 18.5349 19.5974C18.6275 19.6237 18.7592 19.6675 18.9543 19.7389C19.1479 19.8097 19.3722 19.8959 19.6515 20.0033L21.0407 16.3913ZM19.5283 18.9483C19.4384 19.2158 19.2284 19.4258 18.9609 19.5158L17.7275 15.8476C16.8472 16.1436 16.1561 16.8346 15.8601 17.7149L19.5283 18.9483ZM12.611 16.8622C12.611 14.5074 14.52 12.5984 16.8748 12.5984V8.72844C12.3826 8.72844 8.74101 12.37 8.74101 16.8622H12.611ZM4.34601 16.8622C4.34601 9.94275 9.95532 4.33344 16.8748 4.33344V0.463438C7.81798 0.463438 0.476011 7.80541 0.476011 16.8622H4.34601ZM16.8748 4.33344C22.5475 4.33344 27.3443 8.10503 28.8849 13.2816L32.5942 12.1777C30.5786 5.40527 24.3063 0.463438 16.8748 0.463438V4.33344ZM13.2942 28.8724C8.1176 27.3317 4.34601 22.5349 4.34601 16.8622H0.476011C0.476011 24.2937 5.41784 30.566 12.1903 32.5816L13.2942 28.8724Z" fill="white"/>
</svg>
