<svg width="50" height="51" viewBox="0 0 50 51" fill="none" xmlns="http://www.w3.org/2000/svg">
<g clip-path="url(#clip0_903_37200)">
<path d="M18.7123 31.8094H31.1098M18.7123 48.3394H31.1098C36.8959 48.3394 39.7889 48.3394 41.9989 47.2134C43.9428 46.2229 45.5233 44.6424 46.5138 42.6984C47.6398 40.4885 47.6398 37.5954 47.6398 31.8094V19.4119C47.6398 13.6259 47.6398 10.7328 46.5138 8.52286C45.5233 6.57891 43.9428 4.99843 41.9989 4.00794C39.7889 2.8819 36.8959 2.8819 31.1098 2.8819H18.7123C12.9263 2.8819 10.0332 2.8819 7.82327 4.00794C5.87932 4.99843 4.29884 6.57891 3.30835 8.52286C2.18231 10.7328 2.18231 13.6259 2.18231 19.4119V31.8094C2.18231 37.5954 2.18231 40.4885 3.30835 42.6984C4.29884 44.6424 5.87932 46.2229 7.82327 47.2134C10.0332 48.3394 12.9263 48.3394 18.7123 48.3394ZM17.0593 40.0744H32.7628C35.0772 40.0744 36.2344 40.0744 37.1184 39.624C37.896 39.2278 38.5282 38.5956 38.9244 37.818C39.3748 36.934 39.3748 35.7768 39.3748 33.4624V30.1564C39.3748 27.842 39.3748 26.6848 38.9244 25.8008C38.5282 25.0232 37.896 24.391 37.1184 23.9948C36.2344 23.5444 35.0772 23.5444 32.7628 23.5444H17.0593C14.7449 23.5444 13.5877 23.5444 12.7037 23.9948C11.9261 24.391 11.2939 25.0232 10.8977 25.8008C10.4473 26.6848 10.4473 27.842 10.4473 30.1564V33.4624C10.4473 35.7768 10.4473 36.934 10.8977 37.818C11.2939 38.5956 11.9261 39.2278 12.7037 39.624C13.5877 40.0744 14.7449 40.0744 17.0593 40.0744Z" stroke="#111111" stroke-width="3.87" stroke-linecap="round"/>
</g>
<defs>
<clipPath id="clip0_903_37200">
<rect width="49.59" height="49.59" fill="white" transform="translate(0.116089 0.815674)"/>
</clipPath>
</defs>
</svg>
