<svg width="50" height="50" viewBox="0 0 50 50" fill="none" xmlns="http://www.w3.org/2000/svg">
<path d="M37.5826 16.6931L12.7876 8.4281M33.4501 22.8919V35.2894M13.2009 41.4881H37.1694C39.4838 41.4881 40.641 41.4881 41.525 41.0377C42.3026 40.6415 42.9348 40.0093 43.331 39.2317C43.7814 38.3477 43.7814 37.1905 43.7814 34.8761V23.3051C43.7814 20.9907 43.7814 19.8335 43.331 18.9495C42.9348 18.1719 42.3026 17.5397 41.525 17.1435C40.641 16.6931 39.4838 16.6931 37.1694 16.6931H13.2009C10.8865 16.6931 9.72924 16.6931 8.84525 17.1435C8.06767 17.5397 7.43548 18.1719 7.03928 18.9495C6.58887 19.8335 6.58887 20.9907 6.58887 23.3051V34.8761C6.58887 37.1905 6.58887 38.3477 7.03928 39.2317C7.43548 40.0093 8.06767 40.6415 8.84525 41.0377C9.72924 41.4881 10.8865 41.4881 13.2009 41.4881ZM25.1851 29.0906C25.1851 32.5141 22.4098 35.2894 18.9864 35.2894C15.5629 35.2894 12.7876 32.5141 12.7876 29.0906C12.7876 25.6671 15.5629 22.8919 18.9864 22.8919C22.4098 22.8919 25.1851 25.6671 25.1851 29.0906Z" stroke="white" stroke-opacity="0.5" stroke-width="3.87" stroke-linecap="round"/>
</svg>
