<svg width="50" height="50" viewBox="0 0 50 50" fill="none" xmlns="http://www.w3.org/2000/svg">
<path d="M20.7995 21.0594V29.3244M29.0645 21.0594V29.3244M18.7332 47.9207H31.1307C36.9168 47.9207 39.8098 47.9207 42.0198 46.7947C43.9637 45.8042 45.5442 44.2237 46.5347 42.2797C47.6607 40.0698 47.6607 37.1767 47.6607 31.3907V18.9932C47.6607 13.2072 47.6607 10.3141 46.5347 8.10416C45.5442 6.16021 43.9637 4.57973 42.0198 3.58923C39.8098 2.4632 36.9168 2.4632 31.1307 2.4632H18.7332C12.9472 2.4632 10.0542 2.4632 7.84421 3.58923C5.90026 4.57973 4.31978 6.16021 3.32929 8.10416C2.20325 10.3141 2.20325 13.2072 2.20325 18.9932V31.3907C2.20325 37.1767 2.20325 40.0698 3.32929 42.2797C4.31978 44.2237 5.90026 45.8042 7.84421 46.7947C10.0542 47.9207 12.9472 47.9207 18.7332 47.9207ZM39.3957 25.1919C39.3957 33.1801 32.9201 39.6557 24.932 39.6557C16.9439 39.6557 10.4682 33.1801 10.4682 25.1919C10.4682 17.2038 16.9439 10.7282 24.932 10.7282C32.9201 10.7282 39.3957 17.2038 39.3957 25.1919Z" stroke="white" stroke-opacity="0.5" stroke-width="3.87" stroke-linecap="round"/>
</svg>
