<svg width="46" height="46" viewBox="0 0 46 46" fill="none" xmlns="http://www.w3.org/2000/svg">
<path d="M15.0332 28.8937C15.722 30.2711 18.3391 33.026 23.2979 33.026C28.2567 33.026 30.8738 30.2711 31.5626 28.8937M15.6787 17.1423H16.4535M15.6787 17.9171H16.4535M30.1418 17.1423H30.9166M30.1418 17.9171H30.9166M43.9596 22.6952C43.9596 34.1063 34.709 43.3568 23.2979 43.3568C11.8868 43.3568 2.63623 34.1063 2.63623 22.6952C2.63623 11.284 11.8868 2.03348 23.2979 2.03348C34.709 2.03348 43.9596 11.284 43.9596 22.6952ZM17.0994 17.5297C17.0994 18.1003 16.6369 18.5628 16.0663 18.5628C15.4958 18.5628 15.0332 18.1003 15.0332 17.5297C15.0332 16.9592 15.4958 16.4966 16.0663 16.4966C16.6369 16.4966 17.0994 16.9592 17.0994 17.5297ZM31.5626 17.5297C31.5626 18.1003 31.1 18.5628 30.5295 18.5628C29.9589 18.5628 29.4964 18.1003 29.4964 17.5297C29.4964 16.9592 29.9589 16.4966 30.5295 16.4966C31.1 16.4966 31.5626 16.9592 31.5626 17.5297Z" stroke="#40513B" stroke-width="3.87406" stroke-linecap="round"/>
</svg>
